# xmcd
#
# Track frame offsets:
#	150
#	26427
#	43957
#	61857
#	77392
#	104527
#	119687
#	158955
#	180637
#	197857
#	211717
#	225945
#	238687
#
# Disc length: 3311 seconds
#
# Revision: 0
# Processed by: cddbd v1.5.1PL0 Copyright (c) Steve Scherf et al.
# Submitted via: dBpowerAMP V4.0
#
DISCID=a60ced0d
DTITLE=Beats Sittin' Home - Down the Road
DYEAR=1900
DGENRE=Bluegrass
TTITLE0=Boatman Medley
TTITLE1=O're the Leeward Rail
TTITLE2=Pappa Raised Pigs
TTITLE3=If You Drink, You Die
TTITLE4=Union Medley
TTITLE5=Pastures of Plenty
TTITLE6=Medley: Fare Thee Well
TTITLE7=Song for the Mira
TTITLE8=Accross the Great Divide
TTITLE9=Beauty in the River
TTITLE10=Two Hands
TTITLE11=Down the Road
TTITLE12=Bonus Track
EXTD=
EXTT0=
EXTT1=
EXTT2=
EXTT3=
EXTT4=
EXTT5=
EXTT6=
EXTT7=
EXTT8=
EXTT9=
EXTT10=
EXTT11=
EXTT12=
PLAYORDER=
